<svg width="22" height="16" viewBox="0 0 22 16" fill="none" xmlns="http://www.w3.org/2000/svg">
<path d="M15.1188 1.38119C14.4906 0.752945 13.6385 0.4 12.75 0.4H4.25C3.36152 0.4 2.50944 0.752945 1.88119 1.38119C1.25295 2.00944 0.9 2.86152 0.9 3.75V12.25C0.9 13.1385 1.25295 13.9906 1.88119 14.6188C2.50944 15.2471 3.36152 15.6 4.25 15.6H12.75C13.6385 15.6 14.4906 15.2471 15.1188 14.6188C15.7467 13.9909 16.0996 13.1395 16.1 12.2516L19.8125 14.4787C19.9415 14.5562 20.0887 14.598 20.2391 14.5999C20.3896 14.6018 20.5378 14.5638 20.6687 14.4897C20.7996 14.4156 20.9085 14.3081 20.9843 14.1781C21.0601 14.0482 21.1 13.9004 21.1 13.75V2.248C21.1 2.09757 21.0601 1.94983 20.9843 1.81988C20.9085 1.68993 20.7996 1.58242 20.6687 1.50832C20.5378 1.43422 20.3896 1.39619 20.2391 1.39811C20.0887 1.40003 19.9415 1.44183 19.8126 1.51925C19.8125 1.51925 19.8125 1.51926 19.8125 1.51926L16.1 3.7464C16.099 2.85922 15.7462 2.00859 15.1188 1.38119ZM4.25 2.1H12.75C13.1876 2.1 13.6073 2.27384 13.9167 2.58327C14.2262 2.89271 14.4 3.31239 14.4 3.75V12.25C14.4 12.6876 14.2262 13.1073 13.9167 13.4167C13.6073 13.7262 13.1876 13.9 12.75 13.9H4.25C3.33923 13.9 2.6 13.1608 2.6 12.25V3.75C2.6 3.31239 2.77384 2.89271 3.08327 2.58327C3.39271 2.27384 3.81239 2.1 4.25 2.1ZM16.1 10.2684V5.73061L19.4 3.74966V12.2484L16.1 10.2684Z" fill="#585575" stroke="#585575" stroke-width="0.2"/>
</svg>
