<svg width="24" height="22" viewBox="0 0 24 22" fill="none" xmlns="http://www.w3.org/2000/svg">
<path d="M8.4 9.6C9.34935 9.6 10.2774 9.31849 11.0667 8.79106C11.8561 8.26363 12.4713 7.51397 12.8346 6.63688C13.1979 5.7598 13.293 4.79468 13.1078 3.86357C12.9226 2.93246 12.4654 2.07718 11.7941 1.40589C11.1228 0.734597 10.2675 0.277442 9.33643 0.0922328C8.40532 -0.0929762 7.44021 0.00207975 6.56312 0.36538C5.68603 0.728681 4.93638 1.34391 4.40895 2.13326C3.88152 2.92262 3.6 3.85065 3.6 4.8C3.6 6.07304 4.10571 7.29394 5.00589 8.19411C5.90606 9.09429 7.12696 9.6 8.4 9.6ZM8.4 2.4C8.87468 2.4 9.33869 2.54076 9.73337 2.80447C10.128 3.06819 10.4357 3.44302 10.6173 3.88156C10.799 4.3201 10.8465 4.80266 10.7539 5.26822C10.6613 5.73377 10.4327 6.16141 10.0971 6.49706C9.76141 6.8327 9.33377 7.06128 8.86822 7.15389C8.40266 7.24649 7.9201 7.19896 7.48156 7.01731C7.04302 6.83566 6.66819 6.52805 6.40447 6.13337C6.14076 5.73869 6 5.27468 6 4.8C6 4.16348 6.25286 3.55303 6.70294 3.10295C7.15303 2.65286 7.76348 2.4 8.4 2.4ZM18 12C18.712 12 19.408 11.7889 20.0001 11.3933C20.5921 10.9977 21.0535 10.4355 21.326 9.77766C21.5984 9.11985 21.6697 8.39601 21.5308 7.69768C21.3919 6.99935 21.0491 6.35789 20.5456 5.85442C20.0421 5.35095 19.4007 5.00808 18.7023 4.86918C18.004 4.73027 17.2802 4.80156 16.6223 5.07404C15.9645 5.34651 15.4023 5.80793 15.0067 6.39995C14.6111 6.99197 14.4 7.68799 14.4 8.4C14.4 9.35478 14.7793 10.2705 15.4544 10.9456C16.1295 11.6207 17.0452 12 18 12ZM18 7.2C18.2373 7.2 18.4693 7.27038 18.6667 7.40224C18.864 7.5341 19.0178 7.72151 19.1087 7.94078C19.1995 8.16005 19.2232 8.40133 19.1769 8.63411C19.1306 8.86689 19.0164 9.08071 18.8485 9.24853C18.6807 9.41635 18.4669 9.53064 18.2341 9.57694C18.0013 9.62325 17.7601 9.59948 17.5408 9.50866C17.3215 9.41783 17.1341 9.26403 17.0022 9.06669C16.8704 8.86935 16.8 8.63734 16.8 8.4C16.8 8.08174 16.9264 7.77652 17.1515 7.55147C17.3765 7.32643 17.6817 7.2 18 7.2ZM18 13.2C16.6702 13.2015 15.3785 13.6447 14.328 14.46C13.1526 13.2892 11.6569 12.4927 10.0294 12.1709C8.40191 11.8491 6.71558 12.0164 5.18307 12.6518C3.65056 13.2871 2.3405 14.362 1.41809 15.7409C0.495683 17.1198 0.00224423 18.741 0 20.4C0 20.7183 0.126428 21.0235 0.351472 21.2485C0.576515 21.4736 0.88174 21.6 1.2 21.6C1.51826 21.6 1.82348 21.4736 2.04853 21.2485C2.27357 21.0235 2.4 20.7183 2.4 20.4C2.4 18.8087 3.03214 17.2826 4.15736 16.1574C5.28258 15.0321 6.8087 14.4 8.4 14.4C9.9913 14.4 11.5174 15.0321 12.6426 16.1574C13.7679 17.2826 14.4 18.8087 14.4 20.4C14.4 20.7183 14.5264 21.0235 14.7515 21.2485C14.9765 21.4736 15.2817 21.6 15.6 21.6C15.9183 21.6 16.2235 21.4736 16.4485 21.2485C16.6736 21.0235 16.8 20.7183 16.8 20.4C16.8029 18.9941 16.4477 17.6107 15.768 16.38C16.2983 15.9609 16.9359 15.6996 17.6078 15.626C18.2796 15.5524 18.9587 15.6693 19.5672 15.9636C20.1756 16.2578 20.689 16.7174 21.0485 17.2897C21.408 17.8621 21.5991 18.5241 21.6 19.2C21.6 19.5183 21.7264 19.8235 21.9515 20.0485C22.1765 20.2736 22.4817 20.4 22.8 20.4C23.1183 20.4 23.4235 20.2736 23.6485 20.0485C23.8736 19.8235 24 19.5183 24 19.2C24 17.6087 23.3679 16.0826 22.2426 14.9574C21.1174 13.8321 19.5913 13.2 18 13.2Z" fill="#585575"/>
</svg>
