<svg width="20" height="22" viewBox="0 0 20 22" fill="none" xmlns="http://www.w3.org/2000/svg">
<path fill-rule="evenodd" clip-rule="evenodd" d="M8.138 0.814985C8.58591 0.680619 9.05903 0.652823 9.5196 0.733816C9.98016 0.81481 10.4154 1.00235 10.7906 1.28146C11.1658 1.56058 11.4706 1.92354 11.6805 2.34138C11.8905 2.75921 11.9999 3.22035 12 3.68798V18.312C11.9999 18.7796 11.8905 19.2408 11.6805 19.6586C11.4706 20.0764 11.1658 20.4394 10.7906 20.7185C10.4154 20.9976 9.98016 21.1852 9.5196 21.2662C9.05903 21.3471 8.58591 21.3194 8.138 21.185L2.138 19.385C1.5201 19.1996 0.97841 18.82 0.593282 18.3025C0.208154 17.785 0.000105789 17.1571 0 16.512V5.48798C0.000105789 4.84288 0.208154 4.215 0.593282 3.69747C0.97841 3.17994 1.5201 2.80034 2.138 2.61498L8.138 0.814985ZM13 2.99998C13 2.73477 13.1054 2.48041 13.2929 2.29288C13.4804 2.10534 13.7348 1.99998 14 1.99998H17C17.7956 1.99998 18.5587 2.31606 19.1213 2.87866C19.6839 3.44127 20 4.20434 20 4.99998V5.99998C20 6.2652 19.8946 6.51956 19.7071 6.70709C19.5196 6.89463 19.2652 6.99998 19 6.99998C18.7348 6.99998 18.4804 6.89463 18.2929 6.70709C18.1054 6.51956 18 6.2652 18 5.99998V4.99998C18 4.73477 17.8946 4.48041 17.7071 4.29288C17.5196 4.10534 17.2652 3.99998 17 3.99998H14C13.7348 3.99998 13.4804 3.89463 13.2929 3.70709C13.1054 3.51955 13 3.2652 13 2.99998ZM19 15C19.2652 15 19.5196 15.1053 19.7071 15.2929C19.8946 15.4804 20 15.7348 20 16V17C20 17.7956 19.6839 18.5587 19.1213 19.1213C18.5587 19.6839 17.7956 20 17 20H14C13.7348 20 13.4804 19.8946 13.2929 19.7071C13.1054 19.5196 13 19.2652 13 19C13 18.7348 13.1054 18.4804 13.2929 18.2929C13.4804 18.1053 13.7348 18 14 18H17C17.2652 18 17.5196 17.8946 17.7071 17.7071C17.8946 17.5196 18 17.2652 18 17V16C18 15.7348 18.1054 15.4804 18.2929 15.2929C18.4804 15.1053 18.7348 15 19 15ZM7 9.99998C6.73478 9.99998 6.48043 10.1053 6.29289 10.2929C6.10536 10.4804 6 10.7348 6 11C6 11.2652 6.10536 11.5196 6.29289 11.7071C6.48043 11.8946 6.73478 12 7 12H7.001C7.26622 12 7.52057 11.8946 7.70811 11.7071C7.89564 11.5196 8.001 11.2652 8.001 11C8.001 10.7348 7.89564 10.4804 7.70811 10.2929C7.52057 10.1053 7.26622 9.99998 7.001 9.99998H7Z" fill="white"/>
<path d="M14 11H19M19 11L17 9M19 11L17 13" stroke="white" stroke-width="2" stroke-linecap="round" stroke-linejoin="round"/>
</svg>
