<svg width="16" height="22" viewBox="0 0 16 22" fill="none" xmlns="http://www.w3.org/2000/svg">
<path d="M8 1C7.20435 1 6.44129 1.31607 5.87868 1.87868C5.31607 2.44129 5 3.20435 5 4V11C5 11.7956 5.31607 12.5587 5.87868 13.1213C6.44129 13.6839 7.20435 14 8 14C8.79565 14 9.55871 13.6839 10.1213 13.1213C10.6839 12.5587 11 11.7956 11 11V4C11 3.20435 10.6839 2.44129 10.1213 1.87868C9.55871 1.31607 8.79565 1 8 1Z" stroke="#585575" stroke-width="2" stroke-linecap="round" stroke-linejoin="round"/>
<path d="M15 9V11C15 12.8565 14.2625 14.637 12.9497 15.9497C11.637 17.2625 9.85652 18 8 18M8 18C6.14348 18 4.36301 17.2625 3.05025 15.9497C1.7375 14.637 1 12.8565 1 11V9M8 18V21" stroke="#585575" stroke-width="2" stroke-linecap="round" stroke-linejoin="round"/>
</svg>
